<svg width="500" height="500" viewBox="0 0 500 500" fill="none" xmlns="http://www.w3.org/2000/svg">
<path d="M165.19 75.7502C165.19 75.7502 89.4196 114.36 51.6296 173.85C13.8396 233.34 16.8296 309.85 62.7496 366.63C108.67 423.41 196.44 416 269.93 452C343.42 488 424.5 480.58 459.25 404.34C494 328.1 441.6 299.57 432.6 211.36C423.6 123.15 344.07 -5.99979 165.19 75.7502Z" fill="#0B8FAC"/>
<path opacity="0.7" d="M165.19 75.7502C165.19 75.7502 89.4196 114.36 51.6296 173.85C13.8396 233.34 16.8296 309.85 62.7496 366.63C108.67 423.41 196.44 416 269.93 452C343.42 488 424.5 480.58 459.25 404.34C494 328.1 441.6 299.57 432.6 211.36C423.6 123.15 344.07 -5.99979 165.19 75.7502Z" fill="white"/>
<path d="M467.2 273.5H463.05V272.79C463.047 270.853 462.276 268.995 460.906 267.624C459.535 266.254 457.678 265.483 455.74 265.48H452.93C450.99 265.48 449.13 266.25 447.757 267.621C446.385 268.992 445.612 270.851 445.61 272.79V273.5H441.47C440.917 273.499 440.368 273.607 439.857 273.818C439.346 274.029 438.881 274.339 438.49 274.731C438.099 275.122 437.789 275.586 437.578 276.098C437.366 276.609 437.258 277.157 437.26 277.71V296.89C437.26 298.007 437.703 299.078 438.493 299.867C439.282 300.657 440.353 301.1 441.47 301.1H467.2C468.316 301.098 469.385 300.653 470.174 299.864C470.963 299.076 471.407 298.006 471.41 296.89V277.71C471.41 276.594 470.966 275.523 470.177 274.734C469.387 273.944 468.316 273.5 467.2 273.5ZM447.61 272.79C447.612 271.381 448.174 270.031 449.171 269.035C450.169 268.04 451.521 267.48 452.93 267.48H455.74C457.148 267.48 458.499 268.04 459.495 269.036C460.49 270.032 461.05 271.382 461.05 272.79V273.5H447.61V272.79Z" fill="#263238"/>
<path d="M462 285.34H456.7V280.05H451.96V285.34H446.66V290.09H451.96V295.38H456.7V290.09H462V285.34Z" fill="white"/>
<path d="M458.999 159.2C458.175 159.2 457.359 159.038 456.598 158.722C455.836 158.406 455.145 157.944 454.562 157.36C453.98 156.777 453.518 156.085 453.204 155.323C452.889 154.561 452.728 153.744 452.73 152.92V136C452.728 135.176 452.889 134.36 453.204 133.598C453.518 132.836 453.98 132.143 454.562 131.56C455.145 130.977 455.836 130.514 456.598 130.198C457.359 129.883 458.175 129.72 458.999 129.72C459.824 129.72 460.64 129.883 461.401 130.198C462.163 130.514 462.854 130.977 463.437 131.56C464.019 132.143 464.481 132.836 464.795 133.598C465.11 134.36 465.271 135.176 465.269 136V152.89C465.275 153.717 465.116 154.537 464.804 155.302C464.491 156.067 464.03 156.763 463.447 157.35C462.864 157.936 462.172 158.402 461.408 158.719C460.645 159.037 459.826 159.2 458.999 159.2Z" fill="white" stroke="#263238" stroke-linecap="round" stroke-linejoin="round"/>
<path d="M458.999 159.2C458.175 159.2 457.359 159.038 456.598 158.722C455.836 158.406 455.145 157.944 454.562 157.36C453.98 156.777 453.518 156.085 453.204 155.323C452.889 154.561 452.728 153.744 452.73 152.92V144.47H465.269V152.92C465.271 153.744 465.11 154.561 464.795 155.323C464.481 156.085 464.019 156.777 463.437 157.36C462.854 157.944 462.163 158.406 461.401 158.722C460.64 159.038 459.824 159.2 458.999 159.2Z" fill="#263238" stroke="#263238" stroke-linecap="round" stroke-linejoin="round"/>
<path d="M427.459 134.28C426.944 133.636 426.561 132.897 426.332 132.104C426.103 131.312 426.033 130.482 426.126 129.662C426.219 128.843 426.473 128.05 426.873 127.328C427.274 126.607 427.813 125.972 428.459 125.46L441.629 114.88C442.934 113.844 444.596 113.367 446.251 113.554C447.907 113.742 449.42 114.578 450.459 115.88C451.495 117.183 451.972 118.843 451.785 120.497C451.597 122.151 450.761 123.663 449.459 124.7L436.279 135.27C435.636 135.785 434.896 136.168 434.105 136.397C433.313 136.626 432.483 136.696 431.664 136.604C430.845 136.512 430.052 136.26 429.33 135.861C428.609 135.462 427.973 134.925 427.459 134.28Z" fill="white" stroke="#263238" stroke-linecap="round" stroke-linejoin="round"/>
<path d="M427.459 134.28C426.944 133.637 426.561 132.897 426.332 132.105C426.103 131.312 426.033 130.482 426.126 129.663C426.219 128.843 426.473 128.05 426.873 127.329C427.274 126.607 427.813 125.973 428.459 125.46L435.049 120.17L442.899 129.96L436.309 135.24C435.667 135.762 434.927 136.15 434.133 136.384C433.339 136.618 432.507 136.693 431.684 136.604C430.862 136.514 430.065 136.263 429.34 135.864C428.615 135.466 427.975 134.927 427.459 134.28Z" fill="#263238" stroke="#263238" stroke-linecap="round" stroke-linejoin="round"/>
<path d="M364.75 88.2402C363.968 88.2406 363.206 88.4853 362.57 88.9402L348 77.6302C348.714 76.3086 349.049 74.8154 348.968 73.3154C348.887 71.8154 348.393 70.367 347.54 69.1302L356.44 57.7502C357.193 58.0407 358.02 58.0824 358.798 57.8692C359.577 57.656 360.267 57.1992 360.767 56.5656C361.267 55.932 361.552 55.1549 361.578 54.3481C361.605 53.5412 361.372 52.7471 360.915 52.0819C360.458 51.4167 359.799 50.9153 359.037 50.6513C358.274 50.3872 357.446 50.3743 356.676 50.6145C355.905 50.8546 355.231 51.3352 354.754 51.9858C354.276 52.6365 354.019 53.423 354.02 54.2302C354.016 55.0082 354.257 55.7677 354.71 56.4002L346.05 67.4902C344.889 66.5124 343.478 65.8774 341.976 65.6566C340.474 65.4358 338.94 65.6379 337.547 66.2402C336.153 66.8425 334.955 67.8212 334.086 69.0665C333.218 70.3117 332.714 71.7744 332.63 73.2902H322.51C322.4 72.3919 321.971 71.5631 321.301 70.9544C320.631 70.3457 319.765 69.9976 318.86 69.9732C317.955 69.9489 317.072 70.25 316.37 70.8217C315.669 71.3935 315.196 72.1981 315.037 73.0891C314.878 73.9802 315.045 74.8986 315.506 75.6774C315.967 76.4562 316.692 77.0438 317.55 77.3333C318.407 77.6228 319.34 77.5949 320.179 77.2549C321.017 76.9149 321.706 76.2851 322.12 75.4802H332.82C333.133 76.9342 333.837 78.2754 334.855 79.3594C335.873 80.4434 337.168 81.2292 338.6 81.6324C340.031 82.0355 341.546 82.0407 342.98 81.6474C344.414 81.2541 345.714 80.4772 346.74 79.4002L361.23 90.6702C360.944 91.4219 360.906 92.2454 361.122 93.0202C361.337 93.7951 361.795 94.4807 362.428 94.9769C363.061 95.4732 363.836 95.7541 364.64 95.7785C365.443 95.8029 366.234 95.5696 366.896 95.1127C367.558 94.6558 368.056 93.9993 368.318 93.2389C368.58 92.4786 368.592 91.6544 368.353 90.8867C368.113 90.119 367.634 89.4481 366.986 88.9719C366.338 88.4958 365.554 88.2394 364.75 88.2402Z" fill="#263238"/>
<path d="M68.78 159.32C67.5687 159.317 66.4079 158.835 65.5514 157.979C64.6949 157.122 64.2126 155.961 64.21 154.75V116.75H73.35V154.75C73.35 155.962 72.8685 157.124 72.0114 157.981C71.1544 158.839 69.992 159.32 68.78 159.32Z" fill="white" stroke="#263238" stroke-linecap="round" stroke-linejoin="round"/>
<path d="M68.78 159.32C67.5687 159.318 66.4079 158.835 65.5514 157.979C64.6949 157.122 64.2126 155.962 64.21 154.75V131.38H73.35V154.75C73.35 155.962 72.8685 157.125 72.0114 157.982C71.1544 158.839 69.992 159.32 68.78 159.32Z" fill="#263238" stroke="#263238" stroke-linecap="round" stroke-linejoin="round"/>
<path d="M74.6602 114.53H62.9102V117.86H74.6602V114.53Z" fill="white" stroke="#263238" stroke-linecap="round" stroke-linejoin="round"/>
<path d="M54.9294 159.32C53.7181 159.317 52.5573 158.835 51.7008 157.979C50.8443 157.122 50.362 155.961 50.3594 154.75V116.75H59.4994V154.75C59.4994 155.962 59.0179 157.124 58.1609 157.981C57.3038 158.839 56.1414 159.32 54.9294 159.32Z" fill="white" stroke="#263238" stroke-linecap="round" stroke-linejoin="round"/>
<path d="M54.9294 159.32C53.7181 159.318 52.5573 158.835 51.7008 157.979C50.8443 157.122 50.362 155.962 50.3594 154.75V131.38H59.4994V154.75C59.4994 155.962 59.0179 157.125 58.1609 157.982C57.3038 158.839 56.1414 159.32 54.9294 159.32Z" fill="#263238" stroke="#263238" stroke-linecap="round" stroke-linejoin="round"/>
<path d="M60.8096 114.53H49.0596V117.86H60.8096V114.53Z" fill="white" stroke="#263238" stroke-linecap="round" stroke-linejoin="round"/>
<path d="M186.78 77.0703L190.42 68.3303C190.481 68.1895 190.584 68.0704 190.714 67.9884C190.844 67.9065 190.996 67.8653 191.15 67.8703C191.304 67.878 191.452 67.933 191.573 68.0278C191.695 68.1227 191.785 68.2527 191.83 68.4003L196.24 82.9403L199.6 72.2303C199.646 72.0796 199.738 71.9473 199.864 71.8522C199.99 71.757 200.142 71.7039 200.3 71.7003C200.455 71.7045 200.606 71.7541 200.734 71.8429C200.862 71.9317 200.961 72.0559 201.02 72.2003L202.89 77.5803H213C215.069 75.418 216.271 72.5711 216.38 69.5803C216.399 66.7867 215.385 64.0845 213.534 61.9927C211.682 59.9009 209.123 58.5669 206.347 58.2469C203.572 57.927 200.777 58.6437 198.497 60.2593C196.218 61.8749 194.617 64.2756 194 67.0003C193.364 64.2947 191.757 61.917 189.483 60.3194C187.209 58.7218 184.427 58.0158 181.666 58.3355C178.905 58.6553 176.358 59.9786 174.51 62.0538C172.661 64.1289 171.64 66.8111 171.64 69.5903C171.751 72.3601 172.79 75.0121 174.59 77.1203L186.78 77.0703Z" fill="#263238"/>
<path d="M202.36 79.0801C202.204 79.0807 202.052 79.0329 201.925 78.9433C201.798 78.8537 201.702 78.7268 201.65 78.5801L200.35 74.8401L196.94 85.7101C196.891 85.8632 196.795 85.9969 196.666 86.0921C196.537 86.1874 196.38 86.2392 196.22 86.2401C196.059 86.2395 195.902 86.1865 195.774 86.0891C195.646 85.9916 195.553 85.8551 195.51 85.7001L191 70.8301L188 78.1101C187.943 78.2461 187.847 78.3623 187.724 78.4441C187.601 78.5259 187.457 78.5697 187.31 78.5701H175.8C178.27 81.3301 181.35 83.7701 183.65 86.0401C187.13 89.4801 190.54 93.0401 194.09 96.3601C198.64 91.8701 203.22 87.3601 207.73 82.8701C208.98 81.6201 210.34 80.3801 211.6 79.0801H202.36Z" fill="#263238"/>
<path d="M33.6689 302.594L38.5723 304.294L43.8779 288.998L38.9745 287.298L33.6689 302.594Z" fill="white" stroke="#263238" stroke-miterlimit="10"/>
<path d="M31.3435 305.022L38.9111 307.647L39.9107 304.765L32.343 302.14L31.3435 305.022Z" fill="white" stroke="#263238" stroke-miterlimit="10"/>
<path d="M33.567 291.234L45.6885 295.438L55.3003 267.728L43.1788 263.524L33.567 291.234Z" fill="white" stroke="#263238" stroke-miterlimit="10"/>
<path d="M39.4612 279.38L48.4082 282.483L53.7139 267.187L44.7668 264.084L39.4612 279.38Z" fill="#263238" stroke="#263238" stroke-miterlimit="10"/>
<path d="M37.8788 290.468L42.7822 292.169L48.0879 276.873L43.1845 275.172L37.8788 290.468Z" fill="#263238" stroke="#263238" stroke-miterlimit="10"/>
<path d="M32.7111 290.943L46.5615 295.748L47.7642 292.28L33.9138 287.476L32.7111 290.943Z" fill="white" stroke="#263238" stroke-miterlimit="10"/>
<path d="M46.1344 262.946L53.3525 265.45L54.955 260.83L47.7369 258.326L46.1344 262.946Z" fill="white" stroke="#263238" stroke-miterlimit="10"/>
<path d="M42.0207 264.097L55.8711 268.901L57.0738 265.434L43.2234 260.63L42.0207 264.097Z" fill="white" stroke="#263238" stroke-miterlimit="10"/>
<path d="M51.4199 258.95L57.2199 242.21" stroke="#263238" stroke-miterlimit="10"/>
<path d="M373.9 467C402.801 467 426.23 461.717 426.23 455.2C426.23 448.683 402.801 443.4 373.9 443.4C344.999 443.4 321.57 448.683 321.57 455.2C321.57 461.717 344.999 467 373.9 467Z" fill="#263238" stroke="#263238" stroke-linecap="round" stroke-linejoin="round"/>
<path d="M333.55 188.48C333.55 188.48 326.47 192.81 326.55 194.71C326.63 196.61 323.91 231.26 323.6 235.59C323.29 239.92 319.17 248.86 318.85 252.92C318.53 256.98 319.55 261.05 320.74 262.92C321.93 264.79 326.3 270.77 326.3 270.77L338.05 252.62C338.339 248.657 338.399 244.68 338.231 240.71C338.051 232.06 333.55 188.48 333.55 188.48Z" fill="white" stroke="#263238" stroke-linecap="round" stroke-linejoin="round"/>
<path d="M378.76 102.62C378.76 102.62 366.26 101.82 359.14 110.49C352.02 119.16 353.55 132.42 353.5 136.49C353.45 140.56 341.36 152.49 342.7 157.35C344.04 162.21 347.6 162.76 346.46 166.82C345.32 170.88 337.88 173.32 338.96 178.47C340.04 183.62 343.96 190.92 343.96 190.92L415.96 191.41C415.96 191.41 418.53 183.83 415.79 178.14C413.05 172.45 409.16 170.57 409.79 167.86C410.42 165.15 413.9 158.65 412.56 153.78C411.22 148.91 406.56 147.56 406.07 138.89C405.58 130.22 404.3 115.89 397.42 108.89C390.54 101.89 378.76 102.62 378.76 102.62Z" fill="#263238" stroke="#263238" stroke-linecap="round" stroke-linejoin="round"/>
<path d="M356.621 436.73C354.41 440.99 351.726 444.989 348.621 448.65C344.021 453.8 339.561 456.51 339.711 459.22C339.861 461.93 349.901 462.46 355.211 460.56C360.521 458.66 364.381 454.87 365.451 454.56C366.521 454.25 369.511 454.56 369.581 450.76C369.651 446.96 369.071 436.14 369.071 436.14L356.621 436.73Z" fill="white" stroke="#263238" stroke-linecap="round" stroke-linejoin="round"/>
<path d="M355.191 460.56C360.511 458.66 364.361 454.87 365.431 454.56C366.501 454.25 369.491 454.56 369.561 450.76C369.561 448.76 369.451 444.76 369.311 441.49C368.524 442.965 367.359 444.206 365.936 445.084C364.513 445.963 362.883 446.448 361.211 446.49C361.211 446.49 361.111 444.59 358.211 441.35C356.341 439.23 354.451 440.9 353.351 442.35L352.461 443.69L352.391 443.82C351.237 445.523 349.974 447.149 348.611 448.69C344.011 453.84 339.551 456.55 339.701 459.26C339.851 461.97 349.881 462.46 355.191 460.56Z" fill="white" stroke="#263238" stroke-linecap="round" stroke-linejoin="round"/>
<path d="M393.671 436.71C396.358 440.986 399.474 444.976 402.971 448.62C408.121 453.76 412.871 456.46 412.971 459.17C413.071 461.88 403.131 462.42 397.611 460.53C392.091 458.64 387.831 454.85 386.741 454.58C385.651 454.31 382.671 454.58 382.201 450.8C381.731 447.02 381.141 436.18 381.141 436.18L393.671 436.71Z" fill="white" stroke="#263238" stroke-linecap="round" stroke-linejoin="round"/>
<path d="M397.65 460.53C392.14 458.64 387.87 454.85 386.78 454.58C385.69 454.31 382.71 454.58 382.24 450.8C381.99 448.8 381.71 444.8 381.5 441.52C382.425 442.986 383.695 444.203 385.2 445.065C386.704 445.926 388.397 446.405 390.13 446.46C390.13 446.46 390.03 444.56 392.56 441.31C394.21 439.2 396.28 440.86 397.56 442.31C397.89 442.75 398.23 443.19 398.56 443.65L398.65 443.78C399.994 445.48 401.429 447.106 402.95 448.65C408.1 453.79 412.85 456.49 412.95 459.2C413.05 461.91 403.17 462.42 397.65 460.53Z" fill="white" stroke="#263238" stroke-linecap="round" stroke-linejoin="round"/>
<path d="M334.87 293.8C334.87 293.8 336.54 350.11 338.76 361.21C340.98 372.31 350.89 435.93 350.89 435.93C353.919 437.212 357.181 437.852 360.47 437.81H371.3L372.3 390.43L372.67 321.66L378.1 438.07C378.1 438.07 393.02 438.6 394.63 438.33C396.24 438.06 397.58 437.79 397.58 437.79L407.17 364.14L412.66 315.14L412.96 295.65C412.96 295.65 367.12 294.06 353.8 292.98C340.48 291.9 335 291.63 335 291.63L334.87 293.8Z" fill="#0B8FAC" stroke="#263238" stroke-linecap="round" stroke-linejoin="round"/>
<path d="M396.771 393.22C396.651 394.16 396.531 395.03 396.391 395.83" stroke="#263238" stroke-linecap="round" stroke-linejoin="round"/>
<path d="M398.001 325.43C398.001 325.43 398.931 365.55 397.301 387.33" stroke="#263238" stroke-linecap="round" stroke-linejoin="round"/>
<path d="M348.851 322.21C348.851 322.21 350.001 348.75 351.141 354.7" stroke="#263238" stroke-linecap="round" stroke-linejoin="round"/>
<path d="M391.58 305.3V325.56C394.176 326.259 396.83 326.717 399.51 326.93C403.62 327.2 411.29 326.93 411.29 326.93L411.84 319.26L391.58 305.3Z" fill="#263238" stroke="#263238" stroke-linecap="round" stroke-linejoin="round"/>
<path d="M335.721 320.9C335.721 320.9 346.131 324.19 350.511 324.46C354.891 324.73 358.991 325.28 358.991 325.28L358.451 319.81L335.171 317.62L335.721 320.9Z" fill="#263238" stroke="#263238" stroke-linecap="round" stroke-linejoin="round"/>
<path d="M367.32 167.07L359.15 176.28L336.49 192.81L341.32 293C341.32 293 359.38 297.86 374.88 299.21C390.38 300.56 410.31 297.01 410.31 297.01L407.38 192.01C407.38 192.01 398.56 179.01 394.04 175.5C389.52 171.99 387.45 168.74 381.46 168.2C375.47 167.66 367.32 167.07 367.32 167.07Z" fill="#0B8FAC" stroke="#263238" stroke-linecap="round" stroke-linejoin="round"/>
<path d="M357.84 172L333.55 188.53L337.36 249.44L336.07 255.56L325.86 267.32L330.21 287.98L328.27 317.13C328.27 317.13 337.92 320.38 344.46 321.18C349.33 321.702 354.223 321.972 359.12 321.99L359.96 282.19C359.96 282.19 363.19 216.12 363.57 213.19C363.95 210.26 367.32 167.19 367.32 167.19L357.84 172Z" fill="white" stroke="#263238" stroke-linecap="round" stroke-linejoin="round"/>
<path d="M358.231 174.49L346.471 203.98L359.161 209.25L347.181 211.43L357.791 253" stroke="#263238" stroke-linecap="round" stroke-linejoin="round"/>
<path d="M365.28 159.22C365.28 159.22 369.5 187.37 372.82 193.87C376.14 200.37 377.08 202.53 377.08 202.53C377.08 202.53 384.3 180.59 385.75 177.34C387.2 174.09 388.75 162.45 388.75 162.45C388.75 162.45 374.36 167.06 365.28 159.22Z" fill="white" stroke="#263238" stroke-linecap="round" stroke-linejoin="round"/>
<path d="M365.28 159.22C365.28 159.22 365.66 161.78 366.28 165.53C368.39 167.14 373.98 171.12 378.11 171.33C381.26 171.49 385.26 169.45 387.92 167.82C388.4 164.87 388.73 162.45 388.73 162.45C388.73 162.45 374.36 167.06 365.28 159.22Z" fill="#263238" stroke="#263238" stroke-linecap="round" stroke-linejoin="round"/>
<path d="M359.551 139.76C359.551 139.76 356.671 135.66 354.731 139.76C352.791 143.86 357.731 149.93 359.111 150.76C363.031 153.09 361.991 148.76 361.991 148.76L359.551 139.76Z" fill="white" stroke="#263238" stroke-linecap="round" stroke-linejoin="round"/>
<path d="M395.321 141.53C395.321 141.53 397.751 137.29 400.131 141.29C402.511 145.29 398.221 151.58 396.941 152.47C393.281 155 393.861 150.66 393.861 150.66L395.321 141.53Z" fill="white" stroke="#263238" stroke-linecap="round" stroke-linejoin="round"/>
<path d="M358.87 136.14C358.87 136.14 369.31 133.7 374.57 130.59C377.792 128.644 380.602 126.086 382.84 123.06C382.84 123.06 387.36 131.6 391.34 135.06C395.32 138.52 396.15 138.72 396.15 138.72C396.15 138.72 394.24 153.67 392.08 158.87C389.92 164.07 382.87 169.13 376.29 167.67C372.55 166.85 366.07 164.15 364.19 159.6C362.31 155.05 358.87 136.14 358.87 136.14Z" fill="white" stroke="#263238" stroke-linecap="round" stroke-linejoin="round"/>
<path d="M385.511 147.63C382.271 147.71 371.421 147.73 365.821 144.35C363.576 143.043 361.475 141.505 359.551 139.76C359.751 140.76 359.991 142.01 360.251 143.31L361.471 144.2L364.531 155.76L363.101 156.07C363.402 157.251 363.766 158.416 364.191 159.56C366.071 164.11 372.551 166.81 376.291 167.63C382.861 169.08 389.891 164.05 392.071 158.86C391.556 157.851 391.404 156.697 391.641 155.59C392.271 152.32 393.051 146.59 393.051 146.59L395.281 144.59C395.401 143.86 395.501 143.16 395.601 142.52C392.901 144.39 387.841 147.57 385.511 147.63Z" fill="#0B8FAC" stroke="#263238" stroke-linecap="round" stroke-linejoin="round"/>
<path d="M373.6 142.8C373.6 142.8 370.11 138.56 365.53 138.95" stroke="#263238" stroke-linecap="round" stroke-linejoin="round"/>
<path d="M382.591 143.64C383.704 142.469 385.088 141.589 386.62 141.077C388.152 140.564 389.787 140.435 391.381 140.7" stroke="#263238" stroke-linecap="round" stroke-linejoin="round"/>
<path d="M363.521 136.83C363.521 136.83 368.521 134.83 372.951 135.77" stroke="#263238" stroke-linecap="round" stroke-linejoin="round"/>
<path d="M383 136.86C384.317 136.187 385.81 135.935 387.275 136.139C388.74 136.343 390.107 136.993 391.19 138" stroke="#263238" stroke-linecap="round" stroke-linejoin="round"/>
<path d="M370.241 141.41C370.264 141.564 370.256 141.72 370.218 141.871C370.18 142.022 370.112 142.163 370.019 142.288C369.926 142.412 369.81 142.517 369.676 142.597C369.543 142.676 369.395 142.728 369.241 142.75C368.928 142.715 368.64 142.562 368.436 142.322C368.232 142.083 368.126 141.775 368.141 141.46C368.117 141.306 368.124 141.149 368.161 140.998C368.199 140.847 368.266 140.705 368.359 140.58C368.452 140.455 368.57 140.35 368.704 140.271C368.838 140.192 368.987 140.141 369.141 140.12C369.453 140.158 369.739 140.311 369.943 140.55C370.147 140.789 370.253 141.096 370.241 141.41Z" fill="#263238"/>
<path d="M388.351 142.71C388.377 142.864 388.373 143.022 388.336 143.174C388.3 143.327 388.233 143.47 388.139 143.595C388.046 143.721 387.927 143.826 387.792 143.904C387.656 143.982 387.506 144.032 387.351 144.05C387.039 144.017 386.751 143.866 386.546 143.628C386.342 143.39 386.236 143.083 386.251 142.77C386.224 142.615 386.228 142.457 386.265 142.305C386.301 142.153 386.368 142.01 386.462 141.884C386.555 141.759 386.674 141.654 386.809 141.576C386.945 141.497 387.095 141.448 387.251 141.43C387.563 141.463 387.85 141.613 388.055 141.851C388.259 142.089 388.365 142.396 388.351 142.71Z" fill="#263238"/>
<path d="M415.28 182.74C415.28 182.74 421.11 185.44 423.28 189.74C425.45 194.04 442.8 240.63 442.72 244.15C442.64 247.67 436.9 251.73 431.52 252.28C426.14 252.83 418.3 243.08 417.13 241.46C415.96 239.84 415.75 220.88 415.75 220.88L415.28 182.74Z" fill="white" stroke="#263238" stroke-linecap="round" stroke-linejoin="round"/>
<path d="M387.801 170.3L390.641 263.44L391.641 322.19C397.086 323.529 402.664 324.25 408.271 324.34C412.947 324.438 417.597 323.608 421.951 321.9C421.951 321.9 420.251 285.35 419.951 279.39C419.651 273.43 417.671 262.06 417.671 262.06L415.311 182.74C415.311 182.74 393.341 172.46 387.801 170.3Z" fill="white" stroke="#263238" stroke-linecap="round" stroke-linejoin="round"/>
<path d="M394.041 175.44L404.111 208.29L394.931 210.78L403.861 215.11L392.721 250.5" fill="white"/>
<path d="M394.041 175.44L404.111 208.29L394.931 210.78L403.861 215.11L392.721 250.5" stroke="#263238" stroke-linecap="round" stroke-linejoin="round"/>
<path d="M401.06 205.49L388.57 265.33C388.57 265.33 397.11 268.03 403.35 268.33C409.59 268.63 422.59 268.59 422.59 268.59L435.59 212.81C435.59 212.81 410 210.36 401.06 205.49Z" fill="#263238" stroke="#263238" stroke-linecap="round" stroke-linejoin="round"/>
<path d="M405.41 261.26L405.82 242.56L415.73 244.65C415.73 244.65 409.18 259.08 405.41 261.26Z" fill="white" stroke="#263238" stroke-linecap="round" stroke-linejoin="round"/>
<path d="M413.001 235.8C413.001 235.8 410.361 232.02 409.511 231.2C408.661 230.38 404.461 227.96 403.651 227.96C402.841 227.96 398.491 227.69 397.651 227.69C396.811 227.69 395.861 229.59 396.721 230.4C397.581 231.21 400.571 231.48 400.571 231.48L402.621 234.48L393.371 233.67C393.371 233.67 391.831 235.3 392.181 236.67C392.442 237.598 392.777 238.504 393.181 239.38C393.146 241.368 393.249 243.356 393.491 245.33C393.851 246.96 395.491 247.5 397.741 248.85C399.991 250.2 407.521 249.39 407.521 249.39H411.001L413.001 235.8Z" fill="white" stroke="#263238" stroke-linecap="round" stroke-linejoin="round"/>
<path d="M435.55 237.68L411.55 234.45C411.55 234.45 409.68 249.89 407.79 255.03C405.9 260.17 405.41 261.26 405.41 261.26C405.41 261.26 430.56 260.7 436.49 260.16C442.42 259.62 445.75 256.09 445.49 251.22C445.23 246.35 442.26 241.47 442.26 241.47" fill="white"/>
<path d="M435.55 237.68L411.55 234.45C411.55 234.45 409.68 249.89 407.79 255.03C405.9 260.17 405.41 261.26 405.41 261.26C405.41 261.26 430.56 260.7 436.49 260.16C442.42 259.62 445.75 256.09 445.49 251.22C445.23 246.35 442.26 241.47 442.26 241.47" stroke="#263238" stroke-linecap="round" stroke-linejoin="round"/>
<path d="M335.47 254.54C335.47 254.54 341.07 258.05 342.47 259.14C343.87 260.23 343.99 267.26 344.88 268.61C345.77 269.96 344.72 270.78 343.1 270.78C341.48 270.78 339.03 265.64 339.03 265.64L338.93 263.74L327.49 267.54L324.49 262.4C324.49 262.4 327.89 254.54 335.47 254.54Z" fill="white" stroke="#263238" stroke-linecap="round" stroke-linejoin="round"/>
<path d="M252.13 467C281.031 467 304.46 461.717 304.46 455.2C304.46 448.683 281.031 443.4 252.13 443.4C223.229 443.4 199.8 448.683 199.8 455.2C199.8 461.717 223.229 467 252.13 467Z" fill="#263238" stroke="#263238" stroke-linecap="round" stroke-linejoin="round"/>
<path d="M293 174.79C293 174.79 299.86 209.22 301.08 215.59C302.3 221.96 304.54 237.1 307.08 243.74C309.62 250.38 308.79 258.88 307.52 261.27C306.246 263.347 304.783 265.302 303.15 267.11L294.63 256C294.63 256 289.56 201.56 289.37 193.85C289.18 186.14 293 174.79 293 174.79Z" fill="white" stroke="#263238" stroke-linecap="round" stroke-linejoin="round"/>
<path d="M297.519 254.64C297.519 254.64 302.919 258.01 303.869 259.44C304.819 260.87 305.499 262.69 304.759 264.24C304.019 265.79 299.989 270.47 298.969 271.38C297.949 272.29 297.089 268.66 296.969 265.54C296.849 262.42 297.519 254.64 297.519 254.64Z" fill="white" stroke="#263238" stroke-linecap="round" stroke-linejoin="round"/>
<path d="M268.48 443.44C268.48 443.44 285.41 451.67 286.48 453.27C287.55 454.87 283.69 457 273.6 457C263.51 457 263.21 455.67 259.2 454.61C255.19 453.55 247.2 454.34 246.12 451.95C245.04 449.56 246.92 441.33 246.92 441.33L268.48 443.44Z" fill="white" stroke="#263238" stroke-linecap="round" stroke-linejoin="round"/>
<path d="M245.999 447.69C245.999 447.69 259.999 456.19 258.769 459.11C257.539 462.03 247.419 462.03 242.089 461.23C236.759 460.43 225.429 453.23 224.829 450.61C224.229 447.99 225.729 443.97 233.939 443.18C242.149 442.39 245.999 447.69 245.999 447.69Z" fill="white" stroke="#263238" stroke-linecap="round" stroke-linejoin="round"/>
<path d="M288.5 308.8C288.5 308.8 280.5 370.41 279.11 379.44C277.72 388.47 273.31 402.81 270.93 413.7C269.581 420.104 268.58 426.577 267.93 433.09C267.687 434.942 267.731 436.821 268.06 438.66C268.4 441.32 268.45 443.44 268.45 443.44C264.889 444.333 261.265 444.955 257.61 445.3C253.1 445.57 246.99 445.57 246.99 445.57L244.99 428.31C244.99 428.31 246.48 402.81 247.36 395.38C248.24 387.95 249.18 329.52 249.14 327.92C249.1 326.32 248.75 312.25 248.75 312.25L276 309.33C276 309.33 279.72 298.71 285.31 299.24C290.9 299.77 288.5 308.8 288.5 308.8Z" fill="white" stroke="#263238" stroke-linecap="round" stroke-linejoin="round"/>
<path d="M285.35 299.24C279.76 298.71 276.04 309.33 276.04 309.33L248.76 312.25C248.76 312.25 248.85 315.99 248.94 319.83C251.85 320.09 254.54 320.24 256.84 320.24C265.58 320.226 274.313 319.735 283 318.77L284.17 306.53L286 319L287.26 318.59C288.04 312.65 288.54 308.78 288.54 308.78C288.54 308.78 290.94 299.77 285.35 299.24Z" fill="#263238" stroke="#263238" stroke-linecap="round" stroke-linejoin="round"/>
<path d="M220.3 310.66C220.3 310.66 220.3 311.04 220.36 311.73C220.73 318.99 222.93 361.06 223.6 368.82C224.35 377.32 220.6 386.61 220.79 394.31C220.98 402.01 222.79 443.71 222.79 443.71L224.79 450.61C224.79 450.61 229.49 447.43 234 447.43C238.51 447.43 246 447.69 246 447.69C246 447.69 246.39 442.11 246.35 440.26C246.31 438.41 246.14 431.76 246.14 431.76C246.14 431.76 253.77 396.97 254.23 394.05C254.69 391.13 260.61 340.67 260.57 339.05C260.53 337.43 261.82 314.88 261.82 314.88L220.3 310.66Z" fill="white" stroke="#263238" stroke-linecap="round" stroke-linejoin="round"/>
<path d="M261.54 320.19C261.71 317.11 261.83 314.91 261.83 314.91L220.3 310.66C220.3 310.66 220.3 311.04 220.36 311.73C220.36 312.61 220.47 314 220.57 315.73C230.28 317.47 247.13 320.21 256.84 320.21C258.44 320.24 260 320.22 261.54 320.19Z" fill="#263238" stroke="#263238" stroke-linecap="round" stroke-linejoin="round"/>
<path d="M250.9 147.6C250.9 147.6 246.51 148.34 244.84 150.3C243.166 152.206 241.661 154.254 240.34 156.42C240.11 157.16 214.29 172.83 214.29 172.83L216.15 247.55C216.15 247.55 216.92 259.06 215.55 262.98C213.236 270.687 212.113 278.703 212.22 286.75C212.46 296.3 213.08 311.75 213.08 311.75C213.08 311.75 242.63 317.63 256.84 317.63C265.58 317.609 274.313 317.111 283 316.14L284.17 303.89L285.95 316.39L292.02 314.39L297.02 277.39C297.02 277.39 300.5 269.55 300.46 267.83C300.42 266.11 301.34 263.91 300.33 262.44C299.32 260.97 297.52 258.03 297.52 258.03C297.52 258.03 293 177 293 174.79C293 172.58 279.63 159.61 278.64 159.12C277.65 158.63 271.55 149.56 263.64 147.12C255.73 144.68 250.9 147.6 250.9 147.6Z" fill="white" stroke="#263238" stroke-linecap="round" stroke-linejoin="round"/>
<path d="M242.85 158.87L239.89 185.78L252.05 191.43L249.01 200.56L279.42 254" stroke="#263238" stroke-linecap="round" stroke-linejoin="round"/>
<path d="M276.82 161.89L285.94 183.18L282.03 188.39L288.55 197.51L285.94 256.17" stroke="#263238" stroke-linecap="round" stroke-linejoin="round"/>
<path d="M249.77 151.28C249.991 156.53 250.944 161.723 252.6 166.71C255.23 174.06 272.66 224.77 272.66 224.77L283.93 264.45C283.93 264.45 282.44 224.03 282.4 222.32C282.36 220.61 273.86 164.5 273.86 164.5C273.86 164.5 272.41 155.44 270.12 152.01C267.83 148.58 252.48 142.21 249.77 151.28Z" fill="#0B8FAC" stroke="#263238" stroke-linecap="round" stroke-linejoin="round"/>
<path d="M248.69 147.36C248.69 147.36 241.6 148.09 242.85 158.87C244.1 169.65 245.75 177 245.75 177" stroke="#263238" stroke-width="2" stroke-linecap="round" stroke-linejoin="round"/>
<path d="M244.88 191.21C244.88 191.21 247.88 203.7 249.93 207.13C251.98 210.56 258.18 213.99 262.59 213.99" stroke="#263238" stroke-linecap="round" stroke-linejoin="round"/>
<path d="M254.36 188.27C254.36 188.27 257.66 202.72 258.21 205.42C258.76 208.12 256.94 213.25 253.88 218.42" stroke="#263238" stroke-linecap="round" stroke-linejoin="round"/>
<path d="M252.999 220.13C252.685 219.957 252.451 219.666 252.35 219.321C252.249 218.977 252.288 218.606 252.459 218.29L252.809 217.65C252.896 217.497 253.011 217.363 253.15 217.255C253.288 217.148 253.447 217.069 253.617 217.023C253.786 216.977 253.963 216.966 254.137 216.989C254.311 217.013 254.478 217.071 254.629 217.16C254.944 217.333 255.178 217.623 255.281 217.968C255.384 218.312 255.347 218.682 255.179 219L254.829 219.63C254.743 219.784 254.627 219.92 254.488 220.028C254.349 220.137 254.19 220.217 254.019 220.264C253.849 220.31 253.671 220.322 253.496 220.299C253.321 220.276 253.152 220.219 252.999 220.13Z" fill="#263238"/>
<path d="M264.23 214.26C264.23 214.436 264.195 214.611 264.126 214.773C264.057 214.935 263.956 215.082 263.829 215.204C263.702 215.327 263.551 215.422 263.387 215.485C263.222 215.548 263.046 215.577 262.87 215.57H262.14C261.78 215.562 261.438 215.413 261.187 215.155C260.936 214.896 260.797 214.55 260.8 214.19C260.798 214.014 260.833 213.84 260.9 213.677C260.968 213.515 261.068 213.368 261.195 213.246C261.321 213.123 261.47 213.028 261.635 212.965C261.799 212.902 261.974 212.873 262.15 212.88H262.88C263.24 212.89 263.582 213.04 263.834 213.297C264.085 213.555 264.227 213.9 264.23 214.26Z" fill="#263238"/>
<path d="M244.9 192.19L243.22 181.54C243.032 180.442 243.27 179.313 243.885 178.384C244.5 177.456 245.446 176.796 246.53 176.54C247.698 176.274 248.924 176.471 249.949 177.091C250.975 177.71 251.721 178.702 252.03 179.86L254.9 190.46" stroke="#263238" stroke-width="2" stroke-linecap="round" stroke-linejoin="round"/>
<path d="M284.428 199.388C286.835 199.146 288.561 196.701 288.283 193.926C288.005 191.151 285.829 189.097 283.422 189.338C281.015 189.579 279.289 192.024 279.567 194.799C279.845 197.574 282.021 199.629 284.428 199.388Z" fill="white" stroke="#263238" stroke-linecap="round" stroke-linejoin="round"/>
<path d="M272.13 151.85C272.13 151.85 281.76 165.4 284.83 193.02" stroke="#263238" stroke-width="2" stroke-linecap="round" stroke-linejoin="round"/>
<path d="M285.086 196.218C286.4 196.096 287.35 194.753 287.207 193.218C287.065 191.684 285.883 190.539 284.569 190.662C283.255 190.784 282.305 192.127 282.448 193.661C282.59 195.195 283.771 196.34 285.086 196.218Z" fill="white" stroke="#263238" stroke-linecap="round" stroke-linejoin="round"/>
<path d="M299.16 256.75C298.569 258.58 298.085 260.443 297.71 262.33C297.71 263.13 297.52 265.52 295.65 264.98C293.78 264.44 294.34 254.89 294.58 253.83C294.82 252.77 299.37 256.2 299.37 256.2" fill="white"/>
<path d="M299.16 256.75C298.569 258.58 298.085 260.443 297.71 262.33C297.71 263.13 297.52 265.52 295.65 264.98C293.78 264.44 294.34 254.89 294.58 253.83C294.82 252.77 299.37 256.2 299.37 256.2" stroke="#263238" stroke-linecap="round" stroke-linejoin="round"/>
<path d="M238.46 248.29C240.123 249.206 241.982 249.71 243.88 249.76C246.82 249.76 252.19 248.76 254.16 249.27C256.13 249.78 261.16 256.12 261.16 256.12C261.16 256.12 262.66 257.59 261.95 258.33C261.24 259.07 259.79 260.33 258.79 259.55C257.79 258.77 252.79 254.65 252.79 254.65L240.18 259.8L235 257.1L238.46 248.29Z" fill="white" stroke="#263238" stroke-linecap="round" stroke-linejoin="round"/>
<path d="M219.15 171.12C219.15 171.12 210.84 172.12 209.43 174.3C208.02 176.48 185.25 226.48 185.3 228.69C185.35 230.9 230.83 266.69 230.83 266.69L240.65 248L216.08 225.22L226.74 200.48" fill="white"/>
<path d="M219.15 171.12C219.15 171.12 210.84 172.12 209.43 174.3C208.02 176.48 185.25 226.48 185.3 228.69C185.35 230.9 230.83 266.69 230.83 266.69L240.65 248L216.08 225.22L226.74 200.48" stroke="#263238" stroke-linecap="round" stroke-linejoin="round"/>
<path d="M234.479 275.72L258.499 276.21L258.38 261.27" stroke="#263238" stroke-linecap="round" stroke-linejoin="round"/>
<path d="M240.21 259.8L233.86 262.17" stroke="#263238" stroke-linecap="round" stroke-linejoin="round"/>
<path d="M247.449 136.82C247.449 136.82 250.179 158.14 251.979 161.32C253.779 164.5 266.579 177.24 266.579 177.24C266.579 177.24 270.579 162.55 271.029 159.12C271.479 155.69 271.829 141.97 271.829 141.97L247.399 135.11L247.449 136.82Z" fill="white" stroke="#263238" stroke-linecap="round" stroke-linejoin="round"/>
<path d="M247.449 136.82C247.449 136.82 247.769 139.32 248.259 142.73C250.174 144.513 252.362 145.978 254.739 147.07C257.889 148.46 266.289 149.24 271.599 148.62C271.739 145.03 271.829 141.97 271.829 141.97L247.399 135.11L247.449 136.82Z" fill="#263238" stroke="#263238" stroke-linecap="round" stroke-linejoin="round"/>
<path d="M240.369 118.21C240.369 118.21 237.099 114.78 235.479 118.69C233.859 122.6 237.479 128.49 239.409 128.74C240.555 128.889 241.718 128.804 242.829 128.49C242.829 128.49 244.199 134.13 245.459 135.84C247.939 138.975 251.117 141.489 254.739 143.18C259.199 145.18 274.129 145.89 276.019 143.18C277.909 140.47 277.799 126.03 277.769 124.81C277.739 123.59 277.529 106.13 277.529 106.13C277.529 106.13 278.869 100.07 277.049 95.8997C275.229 91.7297 256.959 85.8997 252.369 88.3097C247.779 90.7197 242.489 94.9197 242.129 100.31C241.769 105.7 241.989 114.52 241.989 114.52L240.369 118.21Z" fill="white" stroke="#263238" stroke-linecap="round" stroke-linejoin="round"/>
<path d="M267.37 110.61C267.37 110.61 270.42 124.61 269.72 126.29C269.02 127.97 266.83 128 264.09 126.53C261.35 125.06 262.78 123.1 262.78 123.1" stroke="#263238" stroke-linecap="round" stroke-linejoin="round"/>
<path d="M256.75 126.78C256.75 126.78 258.07 130.45 260.52 130.7C262.97 130.95 269.12 131.43 269.12 131.43" stroke="#263238" stroke-linecap="round" stroke-linejoin="round"/>
<path d="M248 111.1L248.39 116.98C248.39 116.98 250.63 118.21 255.77 118.21C260.91 118.21 262.6 116.98 262.6 116.98L262.46 111.1C262.46 111.1 255 106.69 248 111.1Z" stroke="#263238" stroke-linecap="round" stroke-linejoin="round"/>
<path d="M267.39 111.1L269.25 117.23C269.25 117.23 270.01 118.23 275.16 118.23C280.31 118.23 282 117 282 117L281.85 111.12C281.85 111.12 274.38 106.69 267.39 111.1Z" stroke="#263238" stroke-linecap="round" stroke-linejoin="round"/>
<path d="M262.49 111.1H267.39" stroke="#263238" stroke-linecap="round" stroke-linejoin="round"/>
<path d="M248.03 111.1L238.37 116.74" stroke="#263238" stroke-linecap="round" stroke-linejoin="round"/>
<path d="M250.41 108.16C250.41 108.16 253.03 105.22 258.97 107.67" stroke="#263238" stroke-linecap="round" stroke-linejoin="round"/>
<path d="M268.29 108.16C269.172 107.452 270.236 107.008 271.36 106.879C272.483 106.749 273.62 106.94 274.64 107.43" stroke="#263238" stroke-linecap="round" stroke-linejoin="round"/>
<path d="M256.67 113.8C256.67 114.88 256.28 115.8 255.74 115.8C255.2 115.8 254.74 114.92 254.74 113.8C254.74 112.68 255.13 111.8 255.68 111.8C256.23 111.8 256.65 112.71 256.67 113.8Z" fill="#263238"/>
<path d="M272.35 113.55C272.35 114.63 271.96 115.55 271.42 115.55C270.88 115.55 270.42 114.67 270.42 113.55C270.42 112.43 270.81 111.55 271.35 111.55C271.89 111.55 272.32 112.47 272.35 113.55Z" fill="#263238"/>
<path d="M255.569 90.8898C255.569 90.8898 257.929 96.0998 254.999 97.9998C254.095 98.523 253.069 98.7985 252.024 98.7985C250.98 98.7985 249.954 98.523 249.049 97.9998C249.828 99.0758 250.263 100.362 250.297 101.69C250.331 103.018 249.963 104.325 249.239 105.44C247.803 107.833 246.128 110.074 244.239 112.13C244.239 112.13 244.769 118.46 243.669 119.2C242.569 119.94 239.569 118.83 239.519 116.97C239.469 115.11 238.269 111.39 238.219 109.53C238.169 107.67 237.309 102.83 237.309 102.83C237.309 102.83 229.789 99.4798 233.779 95.3898C237.769 91.2998 246.239 87.9498 246.239 87.9498C246.239 87.9498 246.429 80.5098 251.579 78.2798C256.729 76.0498 267.809 72.6998 267.899 76.4198C268.04 78.3343 267.696 80.2534 266.899 81.9998C266.899 81.9998 276.189 81.6298 282.669 87.9998C289.149 94.3698 288.929 100.28 285.579 100.28C282.229 100.28 281.139 101.02 281.139 101.02C281.139 101.02 287.549 104.74 284.249 106.6C280.949 108.46 277.549 106.23 277.549 106.23C277.549 106.23 278.969 103.63 274.789 100.23C270.609 96.8298 255.569 90.8898 255.569 90.8898Z" fill="#263238" stroke="#263238" stroke-linecap="round" stroke-linejoin="round"/>
<path d="M128.681 467C157.582 467 181.011 461.717 181.011 455.2C181.011 448.683 157.582 443.4 128.681 443.4C99.7795 443.4 76.3506 448.683 76.3506 455.2C76.3506 461.717 99.7795 467 128.681 467Z" fill="#263238" stroke="#263238" stroke-linecap="round" stroke-linejoin="round"/>
<path d="M163.141 211.13V220.69L177.041 227.06C177.041 227.06 178.491 220.69 177.331 209.39L163.141 211.13Z" fill="#999999" stroke="#263238" stroke-linecap="round" stroke-linejoin="round"/>
<path d="M94.1504 440.54C90.9689 443.271 87.9629 446.2 85.1504 449.31C81.1504 453.82 80.3704 458.31 84.0904 460.46C87.8104 462.61 93.6504 462.05 100.02 458.07C106.39 454.09 106.13 452.49 109.85 451.17C113.57 449.85 115.96 447.17 115.96 442.93C115.96 438.69 102.41 438.15 99.4904 437.93C96.5704 437.71 94.1504 440.54 94.1504 440.54Z" fill="white" stroke="#263238" stroke-linecap="round" stroke-linejoin="round"/>
<path d="M115.93 442.93C115.93 442.93 109.93 445.59 107.02 448.01C104.11 450.43 98.3099 459.14 91.5299 459.14C88.0772 459.143 84.6818 458.258 81.6699 456.57C81.6743 457.375 81.8995 458.164 82.3209 458.849C82.7423 459.535 83.3438 460.092 84.0599 460.46C87.7799 462.58 93.6199 462.05 99.9899 458.07C106.36 454.09 106.1 452.49 109.82 451.17C113.54 449.85 115.93 447.18 115.93 442.93Z" stroke="#263238" stroke-linecap="round" stroke-linejoin="round"/>
<path d="M161.54 440.54C164.722 443.271 167.728 446.2 170.54 449.31C174.54 453.82 175.32 458.31 171.6 460.46C167.88 462.61 162.04 462.05 155.67 458.07C149.3 454.09 149.56 452.49 145.84 451.17C142.12 449.85 139.73 447.17 139.73 442.93C139.73 438.69 153.28 438.15 156.2 437.93C159.12 437.71 161.54 440.54 161.54 440.54Z" fill="white" stroke="#263238" stroke-linecap="round" stroke-linejoin="round"/>
<path d="M139.761 442.93C139.761 442.93 145.761 445.59 148.671 448.01C151.581 450.43 157.381 459.14 164.161 459.14C167.613 459.143 171.009 458.258 174.021 456.57C174.016 457.375 173.791 458.164 173.37 458.849C172.948 459.535 172.347 460.092 171.631 460.46C167.911 462.58 162.071 462.05 155.701 458.07C149.331 454.09 149.591 452.49 145.871 451.17C142.151 449.85 139.761 447.18 139.761 442.93Z" stroke="#263238" stroke-linecap="round" stroke-linejoin="round"/>
<path d="M86.4502 289.7C86.4502 289.7 88.0402 349.45 88.8402 358.22C89.6402 366.99 92.0002 386.9 92.0002 388C92.0002 389.1 93.3202 433.15 93.3202 433.15L90.9302 437.15L91.7302 442.73L102.35 444.85C107.66 445.91 114.57 447.51 115.63 446.45C116.69 445.39 116.96 443.26 117.49 440.34C118.02 437.42 119.08 432.1 118.02 427.86C116.96 423.62 119.35 378.46 119.62 377.4C119.89 376.34 126 332.72 126 332.72C126 332.72 130 368.58 132.9 379.46C135.8 390.34 134.76 406.55 135.82 412.92C136.88 419.29 139.01 440.81 139.28 442.4C139.55 443.99 140.07 446.4 140.07 446.4C140.07 446.4 153.35 444.54 155.74 443.47C158.163 442.577 160.65 441.869 163.18 441.35C163.18 441.35 163.97 426.21 162.91 420.1C162.138 415.807 161.693 411.461 161.58 407.1C161.58 405.24 162.91 346.29 162.91 346.29L161.58 289.19C161.58 289.19 125.73 292.91 111.92 290.25C98.1102 287.59 86.7202 286 86.7202 286L86.4502 289.7Z" fill="#0B8FAC" stroke="#263238" stroke-linecap="round" stroke-linejoin="round"/>
<path d="M111.94 290.23C98.1302 287.58 86.7202 286 86.7202 286L86.4502 289.71C86.4502 289.71 86.5402 293.14 86.6902 298.46C93.0202 300.23 105.88 303.34 118.31 303.34C131.45 303.34 152.38 299.34 161.8 297.43L161.6 289.18C161.6 289.18 125.75 292.89 111.94 290.23Z" fill="#263238" stroke="#263238" stroke-linecap="round" stroke-linejoin="round"/>
<path d="M158.07 424.79C158.24 426.62 158.35 427.67 158.35 427.67" stroke="#263238" stroke-linecap="round" stroke-linejoin="round"/>
<path d="M154 303.72C154 303.72 155 355.04 155 374.41C155 387.81 156.62 408.15 157.62 419.41" stroke="#263238" stroke-linecap="round" stroke-linejoin="round"/>
<path d="M100.25 300.82L102.67 356.5" stroke="#263238" stroke-linecap="round" stroke-linejoin="round"/>
<path d="M102.181 360.85V370.05" stroke="#263238" stroke-linecap="round" stroke-linejoin="round"/>
<path d="M114.771 149.44C113.463 149.447 112.176 149.765 111.016 150.369C109.856 150.972 108.857 151.843 108.101 152.91C106.447 155.092 104.607 157.127 102.601 158.99L78.8506 171.74L81.1706 262.4L82.0406 293.4C82.0406 293.4 100.281 299.48 117.661 299.48C135.041 299.48 166.031 292.48 166.031 292.48C166.031 292.48 163.431 171.7 164.301 171.7C165.171 171.7 147.211 156.1 139.101 152C130.991 147.9 114.771 149.44 114.771 149.44Z" fill="#0B8FAC" stroke="#263238" stroke-linecap="round" stroke-linejoin="round"/>
<path d="M108 160.4C108 160.4 117.2 177.35 121.08 185.1C124.96 192.85 132.2 204 132.2 204L144.31 171.56" stroke="#263238" stroke-linecap="round" stroke-linejoin="round"/>
<path d="M114.8 267.91L114.33 254.38L87 252.79C87 252.79 87.27 272.71 87.8 273.79" stroke="#263238" stroke-linecap="round" stroke-linejoin="round"/>
<path d="M115.13 277.49L115 273.69" stroke="#263238" stroke-linecap="round" stroke-linejoin="round"/>
<path d="M147.53 275.36L146.73 253.06C146.73 253.06 156.29 253.85 164.26 248.54" stroke="#263238" stroke-linecap="round" stroke-linejoin="round"/>
<path d="M106.551 199.92C107.391 202.57 109.951 204.13 112.261 203.39C114.571 202.65 115.741 199.9 114.891 197.25C114.041 194.6 111.491 193.04 109.181 193.78C106.871 194.52 105.701 197.27 106.551 199.92Z" stroke="#263238" stroke-linecap="round" stroke-linejoin="round"/>
<path d="M106.821 153.52C106.821 153.52 103.751 165.32 110.731 197.35" stroke="#263238" stroke-width="2" stroke-linecap="round" stroke-linejoin="round"/>
<path d="M112.88 198.45C112.674 198.865 112.354 199.212 111.956 199.45C111.559 199.688 111.102 199.807 110.639 199.793C110.176 199.78 109.727 199.633 109.345 199.371C108.963 199.11 108.664 198.744 108.483 198.318C108.303 197.891 108.249 197.422 108.327 196.965C108.405 196.509 108.613 196.084 108.925 195.742C109.238 195.4 109.642 195.155 110.089 195.036C110.537 194.917 111.009 194.929 111.45 195.07C112.085 195.332 112.592 195.833 112.859 196.466C113.127 197.099 113.134 197.812 112.88 198.45Z" stroke="#263238" stroke-linecap="round" stroke-linejoin="round"/>
<path d="M163.14 170C163.14 170 167.48 173.19 167.77 174.35C168.06 175.51 182.83 210.84 182.83 210.84L161.4 214L161.69 193.14" fill="#0B8FAC"/>
<path d="M163.14 170C163.14 170 167.48 173.19 167.77 174.35C168.06 175.51 182.83 210.84 182.83 210.84L161.4 214L161.69 193.14" stroke="#263238" stroke-linecap="round" stroke-linejoin="round"/>
<path d="M81.7504 170.58C81.7504 170.58 76.8204 171.16 75.6604 174.92C74.5004 178.68 66.1104 216.92 66.1104 216.92L96.8103 214L93.9104 185.32" fill="#0B8FAC"/>
<path d="M81.7504 170.58C81.7504 170.58 76.8204 171.16 75.6604 174.92C74.5004 178.68 66.1104 216.92 66.1104 216.92L96.8103 214L93.9104 185.32" stroke="#263238" stroke-linecap="round" stroke-linejoin="round"/>
<path d="M141.051 151.72C141.051 151.72 148.661 156.06 149.411 166.86C150.161 177.66 149.411 180.4 149.411 180.4" stroke="#263238" stroke-width="2" stroke-linecap="round" stroke-linejoin="round"/>
<path d="M152.85 194.23C152.85 194.23 152.17 207 150.78 210.69C149.39 214.38 143.89 218.75 139.53 219.45" stroke="#263238" stroke-linecap="round" stroke-linejoin="round"/>
<path d="M143 192.85C143 192.85 142.39 207.58 142.33 210.32C142.27 213.06 145.03 217.83 148.99 222.4" stroke="#263238" stroke-linecap="round" stroke-linejoin="round"/>
<path d="M150.126 224.004L150.242 223.91C150.787 223.468 150.87 222.668 150.429 222.123L149.868 221.432C149.426 220.887 148.626 220.804 148.082 221.246L147.965 221.34C147.42 221.782 147.337 222.582 147.779 223.127L148.339 223.818C148.781 224.363 149.581 224.446 150.126 224.004Z" fill="#263238"/>
<path d="M137.965 219.917L137.993 220.064C138.124 220.753 138.788 221.206 139.477 221.076L140.352 220.91C141.041 220.779 141.494 220.115 141.363 219.426L141.335 219.278C141.205 218.589 140.54 218.136 139.851 218.267L138.976 218.433C138.287 218.563 137.835 219.228 137.965 219.917Z" fill="#263238"/>
<path d="M153.001 195.2L152.711 184.47C152.684 183.351 152.24 182.282 151.467 181.472C150.694 180.662 149.647 180.169 148.531 180.09C147.344 180.002 146.172 180.387 145.268 181.16C144.365 181.934 143.805 183.034 143.711 184.22L142.811 195.1" stroke="#263238" stroke-width="2" stroke-linecap="round" stroke-linejoin="round"/>
<path d="M177.911 219.82L171.001 218.37L146.671 214.32L112.551 207.82L104.461 204.25C104.461 204.25 96.8107 194.25 96.1507 193.25C95.4907 192.25 86.8407 195.74 87.1507 197.07C87.4607 198.4 88.4807 211.69 89.1507 212.53C89.8207 213.37 97.2907 213.36 97.2907 213.36C97.2907 213.36 132.931 230.56 134.411 231.19C154.981 239.86 164.901 239.78 168.411 240.35C171.921 240.92 174.211 239.5 176.231 237.18C178.251 234.86 177.911 219.82 177.911 219.82Z" fill="#999999" stroke="#263238" stroke-linecap="round" stroke-linejoin="round"/>
<path d="M95.1103 193.11C95.1103 193.11 90.9603 193.28 84.8103 197.43C82.5203 198.98 81.3203 200.09 81.3203 200.76C81.4514 201.557 81.6763 202.336 81.9903 203.08C85.9776 201.16 90.1533 199.658 94.4503 198.6" fill="#999999"/>
<path d="M95.1103 193.11C95.1103 193.11 90.9603 193.28 84.8103 197.43C82.5203 198.98 81.3203 200.09 81.3203 200.76C81.4514 201.557 81.6763 202.336 81.9903 203.08C85.9776 201.16 90.1533 199.658 94.4503 198.6" stroke="#263238" stroke-linecap="round" stroke-linejoin="round"/>
<path d="M96.7702 203.75C96.7702 203.75 85.4802 206.57 83.6502 206.91C81.8202 207.25 81.4902 205.41 81.4902 204.75C81.4902 204.09 81.9902 203.08 83.9802 202.09C85.9702 201.1 95.9802 198.43 95.9802 198.43" fill="#999999"/>
<path d="M96.7702 203.75C96.7702 203.75 85.4802 206.57 83.6502 206.91C81.8202 207.25 81.4902 205.41 81.4902 204.75C81.4902 204.09 81.9902 203.08 83.9802 202.09C85.9702 201.1 95.9802 198.43 95.9802 198.43" stroke="#263238" stroke-linecap="round" stroke-linejoin="round"/>
<path d="M97.9407 208.9C97.9407 208.9 84.8107 210.23 83.8107 209.4C83.5047 209.067 83.2726 208.673 83.1296 208.244C82.9865 207.815 82.9358 207.36 82.9807 206.91L94.7807 204.41" fill="#999999"/>
<path d="M97.9407 208.9C97.9407 208.9 84.8107 210.23 83.8107 209.4C83.5047 209.067 83.2726 208.673 83.1296 208.244C82.9865 207.815 82.9358 207.36 82.9807 206.91L94.7807 204.41" stroke="#263238" stroke-linecap="round" stroke-linejoin="round"/>
<path d="M94.2804 209.56L84.1504 210.06C84.1504 210.06 84.6404 211.56 85.1504 211.72C87.5502 212.313 89.9954 212.704 92.4604 212.89C94.0768 212.943 95.6875 213.11 97.2804 213.39" fill="#999999"/>
<path d="M94.2804 209.56L84.1504 210.06C84.1504 210.06 84.6404 211.56 85.1504 211.72C87.5502 212.313 89.9954 212.704 92.4604 212.89C94.0768 212.943 95.6875 213.11 97.2804 213.39" stroke="#263238" stroke-linecap="round" stroke-linejoin="round"/>
<path d="M72.4805 216.34C72.4805 216.34 77.1105 236.34 78.2705 237.78C79.4305 239.22 88.9905 237.78 98.5505 234.88C108.11 231.98 148.66 214.61 148.66 214.61L154.45 215.76C154.45 215.76 152.13 208.52 148.08 208.23C144.03 207.94 96.8105 214 96.8105 214L72.4805 216.34Z" fill="#999999" stroke="#263238" stroke-linecap="round" stroke-linejoin="round"/>
<path d="M113 136.69C113 136.69 113 137.12 113 137.85C113.09 141.66 113.46 153.76 114.43 156.68C115.59 160.15 131.23 189.41 132.43 187.09C133.63 184.77 140.83 153.2 140.83 153.2V140.75C140.83 140.75 137.06 143.93 130.11 143.93C123.16 143.93 113 136.69 113 136.69Z" fill="#999999" stroke="#263238" stroke-linecap="round" stroke-linejoin="round"/>
<path d="M136.2 153.85C137.822 152.86 139.372 151.757 140.84 150.55V140.75C140.84 140.75 137.07 143.93 130.12 143.93C123.17 143.93 113 136.69 113 136.69C113 136.69 113 137.12 113 137.85C113 139.19 113.1 141.56 113.22 144.2C113.494 144.639 113.802 145.057 114.14 145.45C116.14 147.76 125.72 153.56 128.04 154.14C130.36 154.72 133.59 155.29 136.2 153.85Z" fill="#263238" stroke="#263238" stroke-linecap="round" stroke-linejoin="round"/>
<path d="M147.79 119.89C147.79 119.89 152.42 117.28 152.42 122.21C152.42 127.14 148.08 132.93 148.08 132.93L147.79 119.89Z" fill="#999999" stroke="#263238" stroke-linecap="round" stroke-linejoin="round"/>
<path d="M106.37 120.18C106.37 120.18 99.9902 118.44 99.9902 124.24C99.9902 130.04 105.79 133.79 105.79 133.79H109.79C109.79 133.79 112.11 139.59 114.14 141.9C116.17 144.21 125.72 150.01 128.04 150.59C130.36 151.17 133.54 151.75 136.15 150.3C139.429 148.256 142.451 145.825 145.15 143.06C146.31 141.62 148.34 131.77 148.34 131.77C148.34 131.77 148.92 114.1 147.76 108.02C146.6 101.94 139.07 92.3801 128.64 91.2201C118.21 90.0601 108.36 98.4601 106.92 105.12C105.48 111.78 106.37 120.18 106.37 120.18Z" fill="#999999" stroke="#263238" stroke-linecap="round" stroke-linejoin="round"/>
<path d="M125.191 124.82C125.191 124.82 123.191 128.87 126.641 130.03C130.091 131.19 134.461 130.9 135.331 129.16C136.201 127.42 134.751 125.4 134.751 125.4" stroke="#263238" stroke-linecap="round" stroke-linejoin="round"/>
<path d="M121.721 132.06C121.721 132.06 128.961 138.14 138.811 132.35" stroke="#263238" stroke-linecap="round" stroke-linejoin="round"/>
<path d="M125.771 137.56C125.771 137.56 131.861 141.04 135.911 136.98" stroke="#263238" stroke-linecap="round" stroke-linejoin="round"/>
<path d="M122.301 121.34C123.101 121.34 123.751 120.301 123.751 119.02C123.751 117.739 123.101 116.7 122.301 116.7C121.5 116.7 120.851 117.739 120.851 119.02C120.851 120.301 121.5 121.34 122.301 121.34Z" fill="#263238"/>
<path d="M137.94 118.73C137.94 120.01 137.29 121.05 136.49 121.05C135.69 121.05 135.04 120.05 135.04 118.73C135.04 117.41 135.69 116.42 136.49 116.42C137.29 116.42 137.94 117.45 137.94 118.73Z" fill="#263238"/>
<path d="M118.24 115.84C118.24 115.84 119.69 113.52 125.24 114.39" stroke="#263238" stroke-linecap="round" stroke-linejoin="round"/>
<path d="M134.17 114.68C134.17 114.68 136.78 110.62 140.84 114.68" stroke="#263238" stroke-linecap="round" stroke-linejoin="round"/>
<path d="M147.79 108C147.414 106.28 146.762 104.632 145.86 103.12C145.523 104.723 145.405 106.365 145.51 108C145.93 110.12 147.42 113.08 147.42 114.56C147.42 116.04 147.2 121.97 148.26 121.13C148.365 121.019 148.45 120.89 148.51 120.75C148.576 116.488 148.335 112.227 147.79 108Z" fill="#263238" stroke="#263238" stroke-linecap="round" stroke-linejoin="round"/>
<path d="M133.23 95.9999C135.09 95.9013 136.941 95.6775 138.77 95.3299C135.815 93.1181 132.333 91.7183 128.67 91.2699C118.24 90.1099 108.39 98.5099 106.95 105.17C105.51 111.83 106.37 120.23 106.37 120.23C106.37 120.23 108.67 121.83 109.52 120.14C110.37 118.45 109.52 115.69 110.37 112.73C111.22 109.77 112.48 108.28 112.69 105.95C112.9 103.62 111.42 100.24 112.27 98.3299C113.12 96.4199 118.41 92.8299 121.8 94.0999C125.447 95.4813 129.332 96.127 133.23 95.9999Z" fill="#263238" stroke="#263238" stroke-linecap="round" stroke-linejoin="round"/>
</svg>
